<?xml version="1.0" encoding="UTF-8" standalone="no"?>
<!-- Created with Inkscape (http://www.inkscape.org/) -->

<svg
   xmlns:dc="http://purl.org/dc/elements/1.1/"
   xmlns:cc="http://creativecommons.org/ns#"
   xmlns:rdf="http://www.w3.org/1999/02/22-rdf-syntax-ns#"
   xmlns:svg="http://www.w3.org/2000/svg"
   xmlns="http://www.w3.org/2000/svg"
   xmlns:sodipodi="http://sodipodi.sourceforge.net/DTD/sodipodi-0.dtd"
   xmlns:inkscape="http://www.inkscape.org/namespaces/inkscape"
   width="210mm"
   height="297mm"
   id="svg2"
   version="1.1"
   inkscape:version="0.48.4 r9939"
   sodipodi:docname="Absorb.svg">
  <defs
     id="defs4" />
  <sodipodi:namedview
     id="base"
     pagecolor="#ffffff"
     bordercolor="#666666"
     borderopacity="1.0"
     inkscape:pageopacity="0.0"
     inkscape:pageshadow="2"
     inkscape:zoom="1.4"
     inkscape:cx="305.44072"
     inkscape:cy="378.80718"
     inkscape:document-units="px"
     inkscape:current-layer="layer1"
     showgrid="false"
     inkscape:window-width="1920"
     inkscape:window-height="1141"
     inkscape:window-x="0"
     inkscape:window-y="0"
     inkscape:window-maximized="1"
     showguides="true"
     inkscape:guide-bbox="true" />
  <metadata
     id="metadata7">
    <rdf:RDF>
      <cc:Work
         rdf:about="">
        <dc:format>image/svg+xml</dc:format>
        <dc:type
           rdf:resource="http://purl.org/dc/dcmitype/StillImage" />
        <dc:title></dc:title>
      </cc:Work>
    </rdf:RDF>
  </metadata>
  <g
     inkscape:label="Ebene 1"
     inkscape:groupmode="layer"
     id="layer1">
    <path
       sodipodi:type="arc"
       style="color:#000000;fill:#000000;fill-opacity:1;stroke:none;stroke-width:0.44999999;marker:none;visibility:visible;display:inline;overflow:visible;enable-background:accumulate"
       id="path2985"
       sodipodi:cx="430"
       sodipodi:cy="616.64789"
       sodipodi:rx="287.14285"
       sodipodi:ry="287.14285"
       d="m 717.14285,616.64789 a 287.14285,287.14285 0 1 1 -574.2857,0 287.14285,287.14285 0 1 1 574.2857,0 z"
       transform="matrix(1.2611941,0,0,1.2611941,-171.59915,-267.49332)" />
    <path
       style="fill:#ffffff;fill-opacity:1;stroke:#000000;stroke-width:1.30559456px;stroke-linecap:butt;stroke-linejoin:miter;stroke-opacity:1"
       d="m 170.21295,341.77434 c 62.50847,-15.9611 164.37574,-33.03296 199.80259,-43.59753 33.10299,9.1387 127.69152,23.04886 201.20144,43.59753 C 571.80637,565.96733 419.4999,691.7263 370.24868,722.2619 312.36801,691.64953 169.45424,569.02129 170.21295,341.77434 z"
       id="path3755"
       inkscape:connector-curvature="0"
       sodipodi:nodetypes="ccccc" />
    <g
       id="g3815"
       transform="translate(-3.9390847,-4.7759226)">
      <path
         transform="matrix(1.6371742,0,0,1.6371742,-334.49851,-446.07139)"
         d="m 532.14285,662.36218 c 0,24.85282 -20.14718,45 -45,45 -24.85281,0 -45,-20.14718 -45,-45 0,-24.85281 20.14719,-45 45,-45 24.85282,0 45,20.14719 45,45 z"
         sodipodi:ry="45"
         sodipodi:rx="45"
         sodipodi:cy="662.36218"
         sodipodi:cx="487.14285"
         id="path3760"
         style="color:#000000;fill:#000000;fill-opacity:1;fill-rule:nonzero;stroke:none;stroke-width:0.44999999;marker:none;visibility:visible;display:inline;overflow:visible;enable-background:accumulate"
         sodipodi:type="arc" />
      <path
         transform="matrix(1.040947,0,0,1.040947,16.175516,3.1249061)"
         d="m 482.14285,610.2193 c 0,29.19219 -23.66495,52.85714 -52.85714,52.85714 -29.1922,0 -52.85715,-23.66495 -52.85715,-52.85714 0,-29.19219 23.66495,-52.85714 52.85715,-52.85714 29.19219,0 52.85714,23.66495 52.85714,52.85714 z"
         sodipodi:ry="52.857143"
         sodipodi:rx="52.857143"
         sodipodi:cy="610.2193"
         sodipodi:cx="429.28571"
         id="path3762"
         style="color:#000000;fill:#ffffff;fill-opacity:1;fill-rule:nonzero;stroke:none;stroke-width:0.44999999;marker:none;visibility:visible;display:inline;overflow:visible;enable-background:accumulate"
         sodipodi:type="arc" />
      <rect
         ry="0"
         y="604.30591"
         x="454.4129"
         height="68.04998"
         width="17.252499"
         id="rect3764"
         style="color:#000000;fill:#000000;fill-opacity:1;fill-rule:nonzero;stroke:none;stroke-width:0.44999999;marker:none;visibility:visible;display:inline;overflow:visible;enable-background:accumulate" />
      <rect
         transform="matrix(0,-1,1,0,0,0)"
         ry="0"
         y="430.66275"
         x="-646.95709"
         height="64.752853"
         width="17.252499"
         id="rect3764-3"
         style="color:#000000;fill:#000000;fill-opacity:1;fill-rule:nonzero;stroke:none;stroke-width:0.44999999;marker:none;visibility:visible;display:inline;overflow:visible;enable-background:accumulate" />
    </g>
    <ellipse
       sodipodi:ry="21.9"
       sodipodi:rx="21.9"
       sodipodi:cy="372.39999"
       sodipodi:cx="268.70001"
       transform="matrix(0.3304,-0.9438,0.9438,0.3304,-163.84923,557.21729)"
       class="st3"
       cx="268.70001"
       cy="372.39999"
       rx="21.9"
       ry="21.9"
       id="ellipse15" />
    <path
       inkscape:connector-curvature="0"
       class="st3"
       d="m 277.32857,426.94789 -19.4,62.9 -6.4,-2.3 24,-61.3"
       id="path17" />
    <path
       inkscape:connector-curvature="0"
       class="st3"
       d="m 277.22857,427.24789 -23.5,37 -4,-2.7 25.9,-35.4"
       id="path19" />
    <path
       inkscape:connector-curvature="0"
       class="st3"
       d="m 277.02857,427.44789 -48.3,44.7 -4.4,-5.2 51.5,-41.1"
       id="path21" />
    <path
       inkscape:connector-curvature="0"
       class="st3"
       d="m 276.82857,427.54789 -38.9,20.3 -2.1,-4.4 40.1,-17.7"
       id="path23" />
    <path
       inkscape:connector-curvature="0"
       class="st3"
       d="m 276.62857,427.64789 -64.2,14.6 -1.3,-6.7 65.1,-9.8"
       id="path25" />
    <path
       inkscape:connector-curvature="0"
       class="st3"
       d="m 276.32857,427.64789 -43.8,-1.8 0.4,-4.9 43.6,4.7"
       id="path27" />
    <path
       inkscape:connector-curvature="0"
       class="st3"
       d="m 275.92857,427.44789 -37.1,-23.5 2.7,-4 35.4,25.9"
       id="path31" />
    <path
       inkscape:connector-curvature="0"
       class="st3"
       d="m 275.72857,427.34789 -44.7,-48.3 5.2,-4.4 41.1,51.5"
       id="path33" />
    <path
       inkscape:connector-curvature="0"
       class="st3"
       d="m 275.52857,427.04789 -20.3,-38.8 4.4,-2.1 17.7,40.1"
       id="path35" />
    <path
       inkscape:connector-curvature="0"
       class="st3"
       d="m 275.52857,426.84789 -14.6,-64.2 6.7,-1.3 9.8,65.1"
       id="path37" />
    <path
       inkscape:connector-curvature="0"
       class="st3"
       d="m 275.42857,426.54789 1.8,-43.8 4.9,0.4 -4.7,43.6"
       id="path39" />
    <path
       inkscape:connector-curvature="0"
       class="st3"
       d="m 275.52857,426.34789 19.4,-62.9 6.4,2.3 -24,61.3"
       id="path41" />
    <path
       inkscape:connector-curvature="0"
       class="st3"
       d="m 275.62857,426.14789 23.5,-37.1 4,2.7 -25.9,35.5"
       id="path43" />
    <path
       inkscape:connector-curvature="0"
       class="st3"
       d="m 275.82857,425.94789 48.3,-44.7 4.4,5.2 -51.5,41.1"
       id="path45" />
    <path
       inkscape:connector-curvature="0"
       class="st3"
       d="m 276.02857,425.74789 38.9,-20.3 2.1,4.4 -40.1,17.7"
       id="path47" />
    <path
       inkscape:connector-curvature="0"
       class="st3"
       d="m 276.22857,425.74789 64.2,-14.6 1.3,6.7 -65.1,9.8"
       id="path49" />
    <path
       inkscape:connector-curvature="0"
       class="st3"
       d="m 276.52857,425.64789 43.8,1.8 -0.4,4.9 -43.6,-4.7"
       id="path51" />
    <path
       inkscape:connector-curvature="0"
       class="st3"
       d="m 276.72857,425.74789 62.9,19.4 -2.3,6.4 -61.3,-24"
       id="path53" />
    <path
       inkscape:connector-curvature="0"
       class="st3"
       d="m 277.02857,425.84789 37.1,23.5 -2.7,4 -35.4,-25.9"
       id="path55" />
    <path
       inkscape:connector-curvature="0"
       class="st3"
       d="m 277.22857,426.04789 44.7,48.3 -5.2,4.4 -41,-51.4"
       id="path57" />
    <path
       inkscape:connector-curvature="0"
       class="st3"
       d="m 277.32857,426.24789 20.3,38.9 -4.4,2.1 -17.7,-40.1"
       id="path59" />
    <path
       inkscape:connector-curvature="0"
       class="st3"
       d="m 277.42857,426.44789 14.6,64.2 -6.7,1.3 -9.8,-65.1"
       id="path61" />
    <path
       inkscape:connector-curvature="0"
       class="st3"
       d="m 277.42857,426.74789 -1.8,43.8 -4.9,-0.3 4.7,-43.6"
       id="path63" />
    <rect
       style="color:#000000;fill:#000000;fill-opacity:1;fill-rule:nonzero;stroke:none;stroke-width:0.44999999;marker:none;visibility:visible;display:inline;overflow:visible;enable-background:accumulate"
       id="rect5345"
       width="110.87604"
       height="6.4696283"
       x="277.47351"
       y="313.48553"
       transform="matrix(0.94879671,0.31588734,-0.31588734,0.94879671,0,0)" />
    <rect
       style="color:#000000;fill:#ffffff;fill-opacity:1;fill-rule:nonzero;stroke:none;stroke-width:0.44999999;marker:none;visibility:visible;display:inline;overflow:visible;enable-background:accumulate"
       id="rect5345-3"
       width="110.87604"
       height="6.4696283"
       x="175.55247"
       y="313.4826"
       transform="matrix(0.94879671,0.31588734,-0.31588734,0.94879671,0,0)" />
    <path
       style="fill:#ffffff;fill-opacity:1;stroke:none"
       d="m 168.58499,393.34813 4.83768,1.60993 -0.67869,-7.05529 -0.9628,-0.29989 z"
       id="path5367"
       inkscape:connector-curvature="0"
       sodipodi:nodetypes="ccccc" />
    <rect
       style="color:#000000;fill:#000000;fill-opacity:1;fill-rule:nonzero;stroke:none;stroke-width:0.44999999;marker:none;visibility:visible;display:inline;overflow:visible;enable-background:accumulate"
       id="rect5377"
       width="63.892147"
       height="48.487324"
       x="55.190735"
       y="344.54111" />
  </g>
</svg>
