<?xml version="1.0" encoding="UTF-8" standalone="no"?>
<!-- Created with Inkscape (http://www.inkscape.org/) -->

<svg
   xmlns:dc="http://purl.org/dc/elements/1.1/"
   xmlns:cc="http://creativecommons.org/ns#"
   xmlns:rdf="http://www.w3.org/1999/02/22-rdf-syntax-ns#"
   xmlns:svg="http://www.w3.org/2000/svg"
   xmlns="http://www.w3.org/2000/svg"
   xmlns:sodipodi="http://sodipodi.sourceforge.net/DTD/sodipodi-0.dtd"
   xmlns:inkscape="http://www.inkscape.org/namespaces/inkscape"
   width="7.25in"
   height="10.5in"
   viewBox="0 0 652.5 945"
   id="svg2"
   version="1.1"
   inkscape:version="0.91 r13725"
   sodipodi:docname="InvertCamera.svg"
   inkscape:export-filename="C:\Users\Stephan\Documents\Game Engineering\GameEngineering\Art\InvertCamera.png"
   inkscape:export-xdpi="196.52138"
   inkscape:export-ydpi="196.52138">
  <defs
     id="defs4">
    <marker
       inkscape:stockid="Arrow2Sstart"
       orient="auto"
       refY="0.0"
       refX="0.0"
       id="Arrow2Sstart"
       style="overflow:visible"
       inkscape:isstock="true">
      <path
         id="path4249"
         style="fill-rule:evenodd;stroke-width:0.625;stroke-linejoin:round;stroke:#00ff88;stroke-opacity:1;fill:#00ff88;fill-opacity:1"
         d="M 8.7185878,4.0337352 L -2.2072895,0.016013256 L 8.7185884,-4.0017078 C 6.9730900,-1.6296469 6.9831476,1.6157441 8.7185878,4.0337352 z "
         transform="scale(0.3) translate(-2.3,0)" />
    </marker>
    <marker
       inkscape:stockid="Arrow2Lstart"
       orient="auto"
       refY="0.0"
       refX="0.0"
       id="Arrow2Lstart"
       style="overflow:visible"
       inkscape:isstock="true">
      <path
         id="path4237"
         style="fill-rule:evenodd;stroke-width:0.62500000;stroke-linejoin:round"
         d="M 8.7185878,4.0337352 L -2.2072895,0.016013256 L 8.7185884,-4.0017078 C 6.9730900,-1.6296469 6.9831476,1.6157441 8.7185878,4.0337352 z "
         transform="scale(1.1) translate(1,0)" />
    </marker>
    <marker
       inkscape:stockid="Arrow2Lend"
       orient="auto"
       refY="0.0"
       refX="0.0"
       id="Arrow2Lend"
       style="overflow:visible;"
       inkscape:isstock="true">
      <path
         id="path4240"
         style="fill-rule:evenodd;stroke-width:0.62500000;stroke-linejoin:round;"
         d="M 8.7185878,4.0337352 L -2.2072895,0.016013256 L 8.7185884,-4.0017078 C 6.9730900,-1.6296469 6.9831476,1.6157441 8.7185878,4.0337352 z "
         transform="scale(1.1) rotate(180) translate(1,0)" />
    </marker>
    <marker
       inkscape:stockid="Arrow1Lstart"
       orient="auto"
       refY="0.0"
       refX="0.0"
       id="Arrow1Lstart"
       style="overflow:visible"
       inkscape:isstock="true">
      <path
         id="path4219"
         d="M 0.0,0.0 L 5.0,-5.0 L -12.5,0.0 L 5.0,5.0 L 0.0,0.0 z "
         style="fill-rule:evenodd;stroke:#00ff87;stroke-width:1pt;stroke-opacity:1;fill:#00ff87;fill-opacity:1"
         transform="scale(0.8) translate(12.5,0)" />
    </marker>
    <marker
       inkscape:stockid="Arrow2Sstart"
       orient="auto"
       refY="0"
       refX="0"
       id="Arrow2Sstart-5"
       style="overflow:visible"
       inkscape:isstock="true">
      <path
         inkscape:connector-curvature="0"
         id="path4249-2"
         style="fill:#00ff88;fill-opacity:1;fill-rule:evenodd;stroke:#00ff88;stroke-width:0.625;stroke-linejoin:round;stroke-opacity:1"
         d="M 8.7185878,4.0337352 -2.2072895,0.01601326 8.7185884,-4.0017078 c -1.7454984,2.3720609 -1.7354408,5.6174519 -6e-7,8.035443 z"
         transform="matrix(0.3,0,0,0.3,-0.69,0)" />
    </marker>
  </defs>
  <sodipodi:namedview
     id="base"
     pagecolor="#ffffff"
     bordercolor="#666666"
     borderopacity="1.0"
     inkscape:pageopacity="0.0"
     inkscape:pageshadow="2"
     inkscape:zoom="0.70710678"
     inkscape:cx="231.70589"
     inkscape:cy="526.50141"
     inkscape:document-units="px"
     inkscape:current-layer="layer1"
     showgrid="false"
     units="in"
     inkscape:window-width="1920"
     inkscape:window-height="1017"
     inkscape:window-x="-8"
     inkscape:window-y="-8"
     inkscape:window-maximized="1" />
  <metadata
     id="metadata7">
    <rdf:RDF>
      <cc:Work
         rdf:about="">
        <dc:format>image/svg+xml</dc:format>
        <dc:type
           rdf:resource="http://purl.org/dc/dcmitype/StillImage" />
        <dc:title></dc:title>
      </cc:Work>
    </rdf:RDF>
  </metadata>
  <g
     inkscape:label="Ebene 1"
     inkscape:groupmode="layer"
     id="layer1"
     transform="translate(0,-107.3622)">
    <path
       inkscape:connector-curvature="0"
       style="fill:#000000;fill-opacity:1;fill-rule:evenodd;stroke:none;stroke-width:1px;stroke-linecap:butt;stroke-linejoin:miter;stroke-opacity:1"
       d="M 640.19235,596.31764 C 652.55107,772.92756 519.39916,926.11691 342.78923,938.47566 166.17931,950.8344 12.989949,817.68246 0.63122599,641.07253 -11.727494,464.46261 121.42442,311.27325 298.03435,298.91453 474.4847,286.56698 627.59044,419.47456 640.16349,595.90898"
       id="path2985" />
    <g
       id="g5694"
       transform="translate(7.6554388e-6,-2.9999987)">
      <rect
         transform="matrix(0.86602541,0.49999998,-0.49999998,0.86602541,0,0)"
         ry="17.976164"
         y="299.20926"
         x="479.17172"
         height="124.80579"
         width="271.13794"
         id="rect4158"
         style="fill:#ffffff;fill-opacity:1" />
      <rect
         transform="matrix(0.86602541,0.49999998,-0.49999998,0.86602541,0,0)"
         ry="1.5316488"
         y="311.30151"
         x="504.60922"
         height="10.634003"
         width="220.26292"
         id="rect4158-2"
         style="fill:#000000;fill-opacity:1" />
      <path
         transform="matrix(0.86602541,0.49999998,-0.49999998,0.86602541,0,0)"
         d="m 659.92305,442.28363 a 41.414566,41.414566 0 0 1 -20.70728,35.86607 41.414566,41.414566 0 0 1 -41.41457,0 41.414566,41.414566 0 0 1 -20.70728,-35.86607"
         sodipodi:open="true"
         sodipodi:end="3.1415927"
         sodipodi:start="0"
         sodipodi:ry="41.414566"
         sodipodi:rx="41.414566"
         sodipodi:cy="442.28363"
         sodipodi:cx="618.50848"
         sodipodi:type="arc"
         id="path4177"
         style="fill:#ffffff;fill-opacity:1" />
      <rect
         ry="2.8208632"
         y="721.927"
         x="294.44672"
         height="47.206757"
         width="14.219133"
         id="rect4179"
         style="color:#000000;clip-rule:nonzero;display:inline;overflow:visible;visibility:visible;opacity:1;isolation:auto;mix-blend-mode:normal;color-interpolation:sRGB;color-interpolation-filters:linearRGB;solid-color:#000000;solid-opacity:1;fill:#ffffff;fill-opacity:1;fill-rule:nonzero;stroke-width:1;stroke-linecap:butt;stroke-linejoin:miter;stroke-miterlimit:4;stroke-dasharray:none;stroke-dashoffset:0;stroke-opacity:1;color-rendering:auto;image-rendering:auto;shape-rendering:auto;text-rendering:auto;enable-background:accumulate" />
      <rect
         transform="matrix(0,-1,1,0,0,0)"
         ry="4.4488935"
         y="301.36221"
         x="-769.13373"
         height="82.113487"
         width="12.669155"
         id="rect4179-9"
         style="color:#000000;clip-rule:nonzero;display:inline;overflow:visible;visibility:visible;opacity:1;isolation:auto;mix-blend-mode:normal;color-interpolation:sRGB;color-interpolation-filters:linearRGB;solid-color:#000000;solid-opacity:1;fill:#ffffff;fill-opacity:1;fill-rule:nonzero;stroke-width:1;stroke-linecap:butt;stroke-linejoin:miter;stroke-miterlimit:4;stroke-dasharray:none;stroke-dashoffset:0;stroke-opacity:1;color-rendering:auto;image-rendering:auto;shape-rendering:auto;text-rendering:auto;enable-background:accumulate" />
      <path
         transform="matrix(0.49999998,-0.86602541,0.86602541,0.49999998,0,0)"
         d="m -312.61915,407.04071 a 48.993031,48.993031 0 0 1 -24.49652,42.42921 48.993031,48.993031 0 0 1 -48.99303,0 48.993031,48.993031 0 0 1 -24.49651,-42.42921"
         sodipodi:open="true"
         sodipodi:end="3.1415927"
         sodipodi:start="0"
         sodipodi:ry="48.993031"
         sodipodi:rx="48.993031"
         sodipodi:cy="407.04071"
         sodipodi:cx="-361.61218"
         sodipodi:type="arc"
         id="path4177-4"
         style="fill:#ffffff;fill-opacity:1" />
      <rect
         transform="matrix(0.86602541,0.49999998,-0.49999998,0.86602541,0,0)"
         ry="0"
         y="332.38101"
         x="439.56549"
         height="58.462273"
         width="23.467251"
         id="rect4211"
         style="fill:#ffffff;fill-opacity:1" />
    </g>
  </g>
</svg>
